<mxfile host="app.diagrams.net" agent="Mozilla/5.0 (Windows NT 10.0; Win64; x64) AppleWebKit/537.36 (KHTML, like Gecko) Chrome/135.0.0.0 Safari/537.36 Edg/135.0.0.0" version="26.1.3">
  <diagram name="第 1 页" id="hf9TLOxkJmJITZOPAGZx">
    <mxGraphModel dx="1002" dy="617" grid="1" gridSize="10" guides="1" tooltips="1" connect="1" arrows="1" fold="1" page="1" pageScale="1" pageWidth="827" pageHeight="1169" math="0" shadow="0">
      <root>
        <mxCell id="0" />
        <mxCell id="1" parent="0" />
        <mxCell id="uirXqUWORqkVqbxP6Icd-11" value="" style="rounded=0;whiteSpace=wrap;html=1;" vertex="1" parent="1">
          <mxGeometry x="120" y="510" width="420" height="320" as="geometry" />
        </mxCell>
        <mxCell id="uirXqUWORqkVqbxP6Icd-1" value="" style="whiteSpace=wrap;html=1;aspect=fixed;" vertex="1" parent="1">
          <mxGeometry x="230" y="90" width="300" height="300" as="geometry" />
        </mxCell>
        <mxCell id="uirXqUWORqkVqbxP6Icd-2" value="Source&lt;div&gt;List&lt;/div&gt;" style="whiteSpace=wrap;html=1;aspect=fixed;" vertex="1" parent="1">
          <mxGeometry x="260" y="180" width="80" height="80" as="geometry" />
        </mxCell>
        <mxCell id="uirXqUWORqkVqbxP6Icd-13" style="edgeStyle=orthogonalEdgeStyle;rounded=0;orthogonalLoop=1;jettySize=auto;html=1;" edge="1" parent="1" source="uirXqUWORqkVqbxP6Icd-7" target="uirXqUWORqkVqbxP6Icd-12">
          <mxGeometry relative="1" as="geometry" />
        </mxCell>
        <mxCell id="uirXqUWORqkVqbxP6Icd-22" style="edgeStyle=orthogonalEdgeStyle;rounded=0;orthogonalLoop=1;jettySize=auto;html=1;exitX=0.25;exitY=1;exitDx=0;exitDy=0;entryX=0.75;entryY=0;entryDx=0;entryDy=0;" edge="1" parent="1" source="uirXqUWORqkVqbxP6Icd-7" target="uirXqUWORqkVqbxP6Icd-14">
          <mxGeometry relative="1" as="geometry">
            <Array as="points">
              <mxPoint x="410" y="490" />
              <mxPoint x="308" y="490" />
            </Array>
          </mxGeometry>
        </mxCell>
        <mxCell id="uirXqUWORqkVqbxP6Icd-7" value="用户交互模块" style="rounded=0;whiteSpace=wrap;html=1;" vertex="1" parent="1">
          <mxGeometry x="380" y="180" width="120" height="180" as="geometry" />
        </mxCell>
        <mxCell id="uirXqUWORqkVqbxP6Icd-3" value="AI配置模块" style="rounded=0;whiteSpace=wrap;html=1;" vertex="1" parent="1">
          <mxGeometry x="400" y="190" width="80" height="60" as="geometry" />
        </mxCell>
        <mxCell id="uirXqUWORqkVqbxP6Icd-4" value="List" style="rounded=0;whiteSpace=wrap;html=1;" vertex="1" parent="1">
          <mxGeometry x="260" y="280" width="80" height="80" as="geometry" />
        </mxCell>
        <mxCell id="uirXqUWORqkVqbxP6Icd-8" value="表示层" style="text;html=1;align=center;verticalAlign=middle;whiteSpace=wrap;rounded=0;" vertex="1" parent="1">
          <mxGeometry x="350" y="110" width="60" height="30" as="geometry" />
        </mxCell>
        <mxCell id="uirXqUWORqkVqbxP6Icd-21" style="edgeStyle=orthogonalEdgeStyle;rounded=0;orthogonalLoop=1;jettySize=auto;html=1;exitX=0;exitY=0.5;exitDx=0;exitDy=0;entryX=1;entryY=0.5;entryDx=0;entryDy=0;" edge="1" parent="1" source="uirXqUWORqkVqbxP6Icd-12" target="uirXqUWORqkVqbxP6Icd-14">
          <mxGeometry relative="1" as="geometry" />
        </mxCell>
        <mxCell id="uirXqUWORqkVqbxP6Icd-12" value="AI处理层" style="rounded=0;whiteSpace=wrap;html=1;" vertex="1" parent="1">
          <mxGeometry x="380" y="550" width="120" height="60" as="geometry" />
        </mxCell>
        <mxCell id="uirXqUWORqkVqbxP6Icd-18" style="edgeStyle=orthogonalEdgeStyle;rounded=0;orthogonalLoop=1;jettySize=auto;html=1;exitX=0.5;exitY=1;exitDx=0;exitDy=0;entryX=0.5;entryY=0;entryDx=0;entryDy=0;startArrow=classic;startFill=1;" edge="1" parent="1" source="uirXqUWORqkVqbxP6Icd-14" target="uirXqUWORqkVqbxP6Icd-16">
          <mxGeometry relative="1" as="geometry" />
        </mxCell>
        <mxCell id="uirXqUWORqkVqbxP6Icd-19" style="edgeStyle=orthogonalEdgeStyle;rounded=0;orthogonalLoop=1;jettySize=auto;html=1;exitX=0.25;exitY=1;exitDx=0;exitDy=0;entryX=0.5;entryY=0;entryDx=0;entryDy=0;startArrow=classic;startFill=1;" edge="1" parent="1" source="uirXqUWORqkVqbxP6Icd-14" target="uirXqUWORqkVqbxP6Icd-15">
          <mxGeometry relative="1" as="geometry" />
        </mxCell>
        <mxCell id="uirXqUWORqkVqbxP6Icd-20" style="edgeStyle=orthogonalEdgeStyle;rounded=0;orthogonalLoop=1;jettySize=auto;html=1;exitX=0.75;exitY=1;exitDx=0;exitDy=0;entryX=0.5;entryY=0;entryDx=0;entryDy=0;startArrow=classic;startFill=1;" edge="1" parent="1" source="uirXqUWORqkVqbxP6Icd-14" target="uirXqUWORqkVqbxP6Icd-17">
          <mxGeometry relative="1" as="geometry" />
        </mxCell>
        <mxCell id="uirXqUWORqkVqbxP6Icd-34" style="edgeStyle=orthogonalEdgeStyle;rounded=0;orthogonalLoop=1;jettySize=auto;html=1;exitX=0.5;exitY=0;exitDx=0;exitDy=0;" edge="1" parent="1" source="uirXqUWORqkVqbxP6Icd-14" target="uirXqUWORqkVqbxP6Icd-4">
          <mxGeometry relative="1" as="geometry">
            <Array as="points">
              <mxPoint x="265" y="410" />
              <mxPoint x="300" y="410" />
            </Array>
          </mxGeometry>
        </mxCell>
        <mxCell id="uirXqUWORqkVqbxP6Icd-14" value="核心层" style="rounded=0;whiteSpace=wrap;html=1;" vertex="1" parent="1">
          <mxGeometry x="180" y="550" width="170" height="60" as="geometry" />
        </mxCell>
        <mxCell id="uirXqUWORqkVqbxP6Icd-33" style="rounded=0;orthogonalLoop=1;jettySize=auto;html=1;exitX=0.5;exitY=1;exitDx=0;exitDy=0;entryX=0.5;entryY=0;entryDx=0;entryDy=0;startArrow=classic;startFill=1;" edge="1" parent="1" source="uirXqUWORqkVqbxP6Icd-15" target="uirXqUWORqkVqbxP6Icd-27">
          <mxGeometry relative="1" as="geometry" />
        </mxCell>
        <mxCell id="uirXqUWORqkVqbxP6Icd-15" value="Data&lt;div&gt;Fetcher&lt;/div&gt;" style="rounded=0;whiteSpace=wrap;html=1;" vertex="1" parent="1">
          <mxGeometry x="170" y="680" width="50" height="110" as="geometry" />
        </mxCell>
        <mxCell id="uirXqUWORqkVqbxP6Icd-32" style="edgeStyle=orthogonalEdgeStyle;rounded=0;orthogonalLoop=1;jettySize=auto;html=1;exitX=0.5;exitY=1;exitDx=0;exitDy=0;entryX=0.5;entryY=0;entryDx=0;entryDy=0;startArrow=classic;startFill=1;" edge="1" parent="1" source="uirXqUWORqkVqbxP6Icd-16" target="uirXqUWORqkVqbxP6Icd-29">
          <mxGeometry relative="1" as="geometry" />
        </mxCell>
        <mxCell id="uirXqUWORqkVqbxP6Icd-16" value="Data&lt;div&gt;Fetcher&lt;/div&gt;" style="rounded=0;whiteSpace=wrap;html=1;" vertex="1" parent="1">
          <mxGeometry x="240" y="680" width="50" height="110" as="geometry" />
        </mxCell>
        <mxCell id="uirXqUWORqkVqbxP6Icd-31" style="edgeStyle=orthogonalEdgeStyle;rounded=0;orthogonalLoop=1;jettySize=auto;html=1;exitX=0.5;exitY=1;exitDx=0;exitDy=0;entryX=0.5;entryY=0;entryDx=0;entryDy=0;startArrow=classic;startFill=1;" edge="1" parent="1" source="uirXqUWORqkVqbxP6Icd-17" target="uirXqUWORqkVqbxP6Icd-30">
          <mxGeometry relative="1" as="geometry" />
        </mxCell>
        <mxCell id="uirXqUWORqkVqbxP6Icd-17" value="Data&lt;div&gt;Fetcher&lt;/div&gt;" style="rounded=0;whiteSpace=wrap;html=1;" vertex="1" parent="1">
          <mxGeometry x="310" y="680" width="50" height="110" as="geometry" />
        </mxCell>
        <mxCell id="uirXqUWORqkVqbxP6Icd-23" style="edgeStyle=orthogonalEdgeStyle;rounded=0;orthogonalLoop=1;jettySize=auto;html=1;exitX=0;exitY=0.5;exitDx=0;exitDy=0;entryX=0.176;entryY=0;entryDx=0;entryDy=0;entryPerimeter=0;startArrow=none;startFill=0;" edge="1" parent="1" source="uirXqUWORqkVqbxP6Icd-2" target="uirXqUWORqkVqbxP6Icd-14">
          <mxGeometry relative="1" as="geometry" />
        </mxCell>
        <mxCell id="uirXqUWORqkVqbxP6Icd-26" style="edgeStyle=orthogonalEdgeStyle;rounded=0;orthogonalLoop=1;jettySize=auto;html=1;exitX=1;exitY=0.5;exitDx=0;exitDy=0;entryX=0.019;entryY=0.779;entryDx=0;entryDy=0;entryPerimeter=0;" edge="1" parent="1" source="uirXqUWORqkVqbxP6Icd-4" target="uirXqUWORqkVqbxP6Icd-7">
          <mxGeometry relative="1" as="geometry" />
        </mxCell>
        <mxCell id="uirXqUWORqkVqbxP6Icd-27" value="服务器A" style="rounded=0;whiteSpace=wrap;html=1;" vertex="1" parent="1">
          <mxGeometry x="170" y="890" width="50" height="240" as="geometry" />
        </mxCell>
        <mxCell id="uirXqUWORqkVqbxP6Icd-29" value="服务器B" style="rounded=0;whiteSpace=wrap;html=1;" vertex="1" parent="1">
          <mxGeometry x="240" y="890" width="50" height="240" as="geometry" />
        </mxCell>
        <mxCell id="uirXqUWORqkVqbxP6Icd-30" value="服务器C" style="rounded=0;whiteSpace=wrap;html=1;" vertex="1" parent="1">
          <mxGeometry x="310" y="890" width="50" height="240" as="geometry" />
        </mxCell>
        <mxCell id="uirXqUWORqkVqbxP6Icd-36" style="edgeStyle=orthogonalEdgeStyle;rounded=0;orthogonalLoop=1;jettySize=auto;html=1;exitX=0;exitY=0.25;exitDx=0;exitDy=0;entryX=1.002;entryY=0.559;entryDx=0;entryDy=0;entryPerimeter=0;" edge="1" parent="1" source="uirXqUWORqkVqbxP6Icd-7" target="uirXqUWORqkVqbxP6Icd-2">
          <mxGeometry relative="1" as="geometry" />
        </mxCell>
      </root>
    </mxGraphModel>
  </diagram>
</mxfile>
